<?xml version="1.0" encoding="utf-8"?>
<!-- Generator: Adobe Illustrator 24.3.0, SVG Export Plug-In . SVG Version: 6.00 Build 0)  -->
<svg version="1.1" id="Layer_1" xmlns="http://www.w3.org/2000/svg" xmlns:xlink="http://www.w3.org/1999/xlink" x="0px" y="0px"
	 viewBox="0 0 800 600" style="enable-background:new 0 0 800 600;" xml:space="preserve">
<style type="text/css">
	.st0{fill:#DFD8F3;}
	.st1{fill:#CECECE;}
</style>
<path class="st0" d="M682,355H115c-8.28,0-15-6.72-15-15v-11c0-8.28,6.72-15,15-15h567c8.28,0,15,6.72,15,15v11
	C697,348.28,690.28,355,682,355z"/>
<path class="st0" d="M818,764H290c-8.28,0-15-6.72-15-15v-11c0-8.28,6.72-15,15-15h528c8.28,0,15,6.72,15,15v11
	C833,757.28,826.28,764,818,764z"/>
<path class="st0" d="M141,106v234c0,8.28-6.72,15-15,15h-11c-8.28,0-15-6.72-15-15V106c0-8.28,6.72-15,15-15h11
	C134.28,91,141,97.72,141,106z"/>
<path class="st0" d="M697,106v234c0,8.28-6.72,15-15,15h-11c-8.28,0-15-6.72-15-15V106c0-8.28,6.72-15,15-15h11
	C690.28,91,697,97.72,697,106z"/>
<path class="st0" d="M421,210v313c0,8.28-6.72,15-15,15h-11c-8.28,0-15-6.72-15-15V210c0-8.28,6.72-15,15-15h11
	C414.28,195,421,201.72,421,210z"/>
<path class="st0" d="M818,835H584c-8.28,0-15-6.72-15-15v-11c0-8.28,6.72-15,15-15h234c8.28,0,15,6.72,15,15v11
	C833,828.28,826.28,835,818,835z"/>
<path class="st0" d="M232.33,257H15.67c-8.28,0-15-6.72-15-15V15c0-8.28,6.72-15,15-15l216.67,0c8.28,0,15,6.72,15,15v227
	C247.33,250.28,240.62,257,232.33,257z"/>
<path class="st0" d="M508.33,257H291.67c-8.28,0-15-6.72-15-15V15c0-8.28,6.72-15,15-15l216.67,0c8.28,0,15,6.72,15,15v227
	C523.33,250.28,516.62,257,508.33,257z"/>
<path class="st0" d="M785.33,257H568.67c-8.28,0-15-6.72-15-15V15c0-8.28,6.72-15,15-15l216.67,0c8.28,0,15,6.72,15,15v227
	C800.33,250.28,793.62,257,785.33,257z"/>
<path class="st0" d="M1426,757H898c-8.28,0-15-6.72-15-15v-11c0-8.28,6.72-15,15-15h528c8.28,0,15,6.72,15,15v11
	C1441,750.28,1434.28,757,1426,757z"/>
<path class="st0" d="M785,600.5H15c-8.28,0-15-6.72-15-15v-163c0-8.28,6.72-15,15-15h770c8.28,0,15,6.72,15,15v163
	C800,593.78,793.28,600.5,785,600.5z"/>
<rect x="964" y="206" class="st1" width="30" height="51"/>
<rect x="832.5" y="80.5" transform="matrix(-1.836970e-16 1 -1 -1.836970e-16 953.5 -741.5)" class="st1" width="30" height="51"/>
</svg>
