<?xml version="1.0" encoding="utf-8"?>
<!-- Generator: Adobe Illustrator 24.3.0, SVG Export Plug-In . SVG Version: 6.00 Build 0)  -->
<svg version="1.1" id="Layer_1" xmlns="http://www.w3.org/2000/svg" xmlns:xlink="http://www.w3.org/1999/xlink" x="0px" y="0px"
	 viewBox="0 0 1000 1000" style="enable-background:new 0 0 1000 1000;" xml:space="preserve">
<style type="text/css">
	.st0{fill:#C59FFF;}
	.st1{opacity:0.5;}
</style>
<g>
	<path class="st0" d="M2831.25,276.6c-40.34-40.34-86.66-73.17-137.68-97.58c-49.31-23.59-101.95-38.84-156.45-45.32
		c-99.58-11.84-201.43,6.84-289.85,52.7c-59.37-50.77-149.02-48.13-205.18,8.03c-56.15,56.15-58.8,145.81-8.03,205.18
		c-45.85,88.42-64.54,190.28-52.69,289.85c6.48,54.5,21.73,107.14,45.32,156.45c24.41,51.02,57.24,97.34,97.58,137.68
		C2218.68,1078,2344.22,1130,2477.75,1130s259.07-52,353.49-146.42s146.42-219.96,146.42-353.49
		C2977.67,496.56,2925.67,371.02,2831.25,276.6z M2091.66,243.99c15.82-15.82,36.61-23.73,57.39-23.73
		c20.78,0,41.57,7.91,57.39,23.73c15.33,15.33,23.77,35.71,23.77,57.39s-8.44,42.06-23.77,57.39c-31.64,31.64-83.13,31.64-114.78,0
		C2060.02,327.13,2060.02,275.64,2091.66,243.99z M2781.67,934c-81.18,81.18-189.11,125.89-303.92,125.89
		s-222.74-44.71-303.92-125.89c-130.87-130.87-162.59-329.07-82.32-492.74c18.38,7.53,37.96,11.31,57.54,11.31
		c38.74,0,77.47-14.74,106.96-44.23c28.57-28.57,44.31-66.56,44.31-106.96c0-20.08-3.89-39.55-11.31-57.58
		c163.65-80.21,361.8-48.49,492.66,82.36C2949.25,493.75,2949.25,766.42,2781.67,934z"/>
	<path class="st0" d="M2477.75,399.11c-127.36,0-230.97,103.61-230.97,230.97s103.61,230.97,230.97,230.97
		c127.36,0,230.97-103.61,230.97-230.97S2605.11,399.11,2477.75,399.11z M2477.75,790.95c-88.7,0-160.86-72.16-160.86-160.86
		c0-88.7,72.16-160.86,160.86-160.86c88.7,0,160.86,72.16,160.86,160.86C2638.62,718.79,2566.45,790.95,2477.75,790.95z"/>
</g>
<g>
	<path class="st0" d="M1913.19-1041.6c-40.34-40.34-86.65-73.16-137.65-97.56c-49.3-23.58-101.92-38.83-156.41-45.31
		c-102.7-12.22-207.8,8.03-298.09,57.07c-55.41-53.84-144.27-53.39-199.08,1.42c-26.79,26.79-41.54,62.4-41.54,100.29
		c0,37.19,14.25,72.18,40.12,98.79c-49.04,90.29-69.28,195.4-57.07,298.09c6.48,54.49,21.72,107.12,45.31,156.41
		c24.4,51,57.23,97.32,97.56,137.65c94.4,94.4,219.92,146.39,353.43,146.39s259.02-51.99,353.42-146.39
		c94.4-94.4,146.39-219.92,146.39-353.43S2007.6-947.19,1913.19-1041.6z M1153.78-1094.16c18.88-18.88,43.67-28.32,68.47-28.32
		c24.8,0,49.59,9.44,68.47,28.32c18.29,18.29,28.36,42.61,28.36,68.47c0,25.87-10.07,50.18-28.36,68.47
		c-37.76,37.76-99.19,37.76-136.94,0c-18.29-18.29-28.36-42.61-28.36-68.47C1125.42-1051.56,1135.49-1075.87,1153.78-1094.16z
		 M1881.38-366.56c-88.68,88.68-205.12,133.01-321.61,133c-116.46-0.01-232.95-44.35-321.61-133
		c-141.64-141.64-173.51-357.81-81.12-533.19c20.38,10.54,42.79,15.82,65.22,15.82c36.31,0,72.64-13.83,100.29-41.47
		c26.79-26.79,41.54-62.4,41.54-100.29c0-23.09-5.51-45.32-15.85-65.24c175.37-92.37,391.52-60.49,533.15,81.14
		c85.91,85.9,133.22,200.12,133.22,321.61C2014.59-566.68,1967.28-452.47,1881.38-366.56z"/>
	<path class="st0" d="M1559.77-911.84c-123.33,0-223.67,100.34-223.67,223.67c0,123.33,100.34,223.67,223.67,223.67
		c123.33,0,223.67-100.34,223.67-223.67C1783.43-811.5,1683.1-911.84,1559.77-911.84z M1559.77-509.5
		c-98.52,0-178.67-80.15-178.67-178.67s80.15-178.67,178.67-178.67c98.52,0,178.67,80.15,178.67,178.67S1658.29-509.5,1559.77-509.5
		z"/>
</g>
<g class="st1">
	<path d="M157.08,842.63c-35.56-35.67-80.72-57.71-130.62-63.73c-46.14-5.56-93.4,3.62-133.87,25.87c-0.14-0.14-0.27-0.29-0.41-0.43
		c-11.62-11.65-27.08-18.09-43.53-18.11c-16.45-0.03-31.93,6.36-43.59,17.97c-11.65,11.62-18.09,27.08-18.11,43.53
		c-0.03,16.45,6.36,31.93,17.97,43.59c0.14,0.14,0.29,0.27,0.43,0.41c-22.39,40.39-31.72,87.62-26.31,133.78
		c5.85,49.91,27.74,95.15,63.3,130.83c41.9,42.03,97.66,65.24,157.01,65.33c59.35,0.1,115.18-22.92,157.22-64.82
		s65.24-97.66,65.33-157.01C222,940.5,198.98,884.67,157.08,842.63z M-196.9,847.76c0.02-12.14,4.77-23.55,13.37-32.12
		c8.6-8.57,20.02-13.28,32.16-13.26c12.14,0.02,23.55,4.77,32.12,13.37c17.69,17.75,17.65,46.59-0.11,64.28
		c-8.6,8.57-20.02,13.28-32.16,13.26c-12.14-0.02-23.55-4.77-32.12-13.37C-192.21,871.33-196.92,859.9-196.9,847.76z
		 M145.17,1145.42c-38.98,38.85-90.76,60.2-145.79,60.11c-55.04-0.09-106.74-21.61-145.6-60.59
		c-64.54-64.75-78.56-163.7-35.4-243.39c9.08,5.12,19.37,7.87,30.08,7.89c16.45,0.03,31.93-6.36,43.59-17.97
		c19.95-19.89,23.38-50.15,10.3-73.63c79.84-42.91,178.75-28.57,243.3,36.19C225.85,934.5,225.64,1065.21,145.17,1145.42z"/>
	<path d="M-0.13,901.17c-54.21-0.09-98.39,43.94-98.48,98.15c-0.09,54.21,43.94,98.39,98.15,98.48
		c54.21,0.09,98.39-43.94,98.47-98.15C98.12,945.44,54.08,901.26-0.13,901.17z M-0.42,1081.65c-45.31-0.07-82.11-36.99-82.03-82.3
		s36.99-82.11,82.3-82.03c45.31,0.07,82.11,36.99,82.03,82.3S44.89,1081.73-0.42,1081.65z"/>
</g>
<g class="st1">
	<path d="M1157.08,842.63c-35.56-35.67-80.72-57.71-130.62-63.73c-46.14-5.56-93.4,3.62-133.87,25.87
		c-0.14-0.14-0.27-0.29-0.41-0.43c-11.62-11.65-27.08-18.09-43.53-18.11c-16.45-0.03-31.93,6.36-43.59,17.97
		c-11.65,11.62-18.09,27.08-18.11,43.53c-0.03,16.45,6.36,31.93,17.97,43.59c0.14,0.14,0.29,0.27,0.43,0.41
		c-22.39,40.39-31.72,87.62-26.31,133.78c5.85,49.91,27.74,95.15,63.3,130.83c41.9,42.03,97.66,65.24,157.01,65.33
		c59.35,0.1,115.18-22.92,157.22-64.82c42.03-41.9,65.24-97.66,65.33-157.01C1222,940.5,1198.98,884.67,1157.08,842.63z
		 M803.1,847.76c0.02-12.14,4.77-23.55,13.37-32.12c8.6-8.57,20.02-13.28,32.16-13.26c12.14,0.02,23.55,4.77,32.12,13.37
		c17.69,17.75,17.65,46.59-0.11,64.28c-8.6,8.57-20.02,13.28-32.16,13.26c-12.14-0.02-23.55-4.77-32.12-13.37
		C807.79,871.33,803.08,859.9,803.1,847.76z M1145.17,1145.42c-38.98,38.85-90.76,60.2-145.79,60.11
		c-55.04-0.09-106.74-21.61-145.6-60.59c-64.54-64.75-78.56-163.7-35.4-243.39c9.08,5.12,19.37,7.87,30.08,7.89
		c16.45,0.03,31.93-6.36,43.59-17.97c19.95-19.89,23.38-50.15,10.3-73.63c79.84-42.91,178.75-28.57,243.3,36.19
		C1225.85,934.5,1225.64,1065.21,1145.17,1145.42z"/>
	<path d="M999.87,901.17c-54.21-0.09-98.39,43.94-98.48,98.15c-0.09,54.21,43.94,98.39,98.15,98.48
		c54.21,0.09,98.39-43.94,98.47-98.15C1098.12,945.44,1054.08,901.26,999.87,901.17z M999.58,1081.65
		c-45.31-0.07-82.11-36.99-82.03-82.3s36.99-82.11,82.3-82.03c45.31,0.07,82.11,36.99,82.03,82.3
		C1081.81,1044.93,1044.89,1081.73,999.58,1081.65z"/>
</g>
<g class="st1">
	<path d="M1157.08-156.37c-35.56-35.67-80.72-57.71-130.62-63.73c-46.14-5.56-93.4,3.62-133.87,25.87
		c-0.14-0.14-0.27-0.29-0.41-0.43c-11.62-11.65-27.08-18.09-43.53-18.11c-16.45-0.03-31.93,6.36-43.59,17.97
		c-11.65,11.62-18.09,27.08-18.11,43.53s6.36,31.93,17.97,43.59c0.14,0.14,0.29,0.27,0.43,0.41
		c-22.39,40.39-31.72,87.62-26.31,133.78c5.85,49.91,27.74,95.15,63.3,130.83c41.9,42.03,97.66,65.24,157.01,65.33
		c59.35,0.1,115.18-22.92,157.22-64.82c42.03-41.9,65.24-97.66,65.33-157.01C1222-58.5,1198.98-114.33,1157.08-156.37z
		 M803.1-151.24c0.02-12.14,4.77-23.55,13.37-32.12c8.6-8.57,20.02-13.28,32.16-13.26c12.14,0.02,23.55,4.77,32.12,13.37
		c17.69,17.75,17.65,46.59-0.11,64.28c-8.6,8.57-20.02,13.28-32.16,13.26c-12.14-0.02-23.55-4.77-32.12-13.37
		C807.79-127.67,803.08-139.1,803.1-151.24z M1145.17,146.42c-38.98,38.85-90.76,60.2-145.79,60.11
		c-55.04-0.09-106.74-21.61-145.6-60.59c-64.54-64.75-78.56-163.7-35.4-243.39c9.08,5.12,19.37,7.87,30.08,7.89
		c16.45,0.03,31.93-6.36,43.59-17.97c19.95-19.89,23.38-50.15,10.3-73.63c79.84-42.91,178.75-28.57,243.3,36.19
		C1225.85-64.5,1225.64,66.21,1145.17,146.42z"/>
	<path d="M999.87-97.83c-54.21-0.09-98.39,43.94-98.48,98.15c-0.09,54.21,43.94,98.39,98.15,98.48s98.39-43.94,98.47-98.15
		C1098.12-53.56,1054.08-97.74,999.87-97.83z M999.58,82.65c-45.31-0.07-82.11-36.99-82.03-82.3s36.99-82.11,82.3-82.03
		c45.31,0.07,82.11,36.99,82.03,82.3C1081.81,45.93,1044.89,82.73,999.58,82.65z"/>
</g>
<g class="st1">
	<path d="M657.08,343.63c-35.56-35.67-80.72-57.71-130.62-63.73c-46.14-5.56-93.4,3.62-133.87,25.87c-0.14-0.14-0.27-0.29-0.41-0.43
		c-11.62-11.65-27.08-18.09-43.53-18.11c-16.45-0.03-31.93,6.36-43.59,17.97c-11.65,11.62-18.09,27.08-18.11,43.53
		c-0.03,16.45,6.36,31.93,17.97,43.59c0.14,0.14,0.29,0.27,0.43,0.41c-22.39,40.39-31.72,87.62-26.31,133.78
		c5.85,49.91,27.74,95.15,63.3,130.83c41.9,42.03,97.66,65.24,157.01,65.33c59.35,0.1,115.18-22.92,157.22-64.82
		c42.03-41.9,65.24-97.66,65.33-157.01C722,441.5,698.98,385.67,657.08,343.63z M303.1,348.76c0.02-12.14,4.77-23.55,13.37-32.12
		c8.6-8.57,20.02-13.28,32.16-13.26c12.14,0.02,23.55,4.77,32.12,13.37c17.69,17.75,17.65,46.59-0.11,64.28
		c-8.6,8.57-20.02,13.28-32.16,13.26c-12.14-0.02-23.55-4.77-32.12-13.37C307.79,372.33,303.08,360.9,303.1,348.76z M645.17,646.42
		c-38.98,38.85-90.76,60.2-145.79,60.11c-55.04-0.09-106.74-21.61-145.6-60.59c-64.54-64.75-78.56-163.7-35.4-243.39
		c9.08,5.12,19.37,7.87,30.08,7.89c16.45,0.03,31.93-6.36,43.59-17.97c19.95-19.89,23.38-50.15,10.3-73.63
		c79.84-42.91,178.75-28.57,243.3,36.19C725.85,435.5,725.64,566.21,645.17,646.42z"/>
	<path d="M499.87,402.17c-54.21-0.09-98.39,43.94-98.48,98.15c-0.09,54.21,43.94,98.39,98.15,98.48
		c54.21,0.09,98.39-43.94,98.47-98.15C598.12,446.44,554.08,402.26,499.87,402.17z M499.58,582.65
		c-45.31-0.07-82.11-36.99-82.03-82.3c0.07-45.31,36.99-82.11,82.3-82.03c45.31,0.07,82.11,36.99,82.03,82.3
		C581.81,545.93,544.89,582.73,499.58,582.65z"/>
</g>
<g class="st1">
	<path d="M157.08-156.37c-35.56-35.67-80.72-57.71-130.62-63.73c-46.14-5.56-93.4,3.62-133.87,25.87c-0.14-0.14-0.27-0.29-0.41-0.43
		c-11.62-11.65-27.08-18.09-43.53-18.11c-16.45-0.03-31.93,6.36-43.59,17.97c-11.65,11.62-18.09,27.08-18.11,43.53
		s6.36,31.93,17.97,43.59c0.14,0.14,0.29,0.27,0.43,0.41c-22.39,40.39-31.72,87.62-26.31,133.78c5.85,49.91,27.74,95.15,63.3,130.83
		c41.9,42.03,97.66,65.24,157.01,65.33c59.35,0.1,115.18-22.92,157.22-64.82S221.81,60.2,221.9,0.85S198.98-114.33,157.08-156.37z
		 M-196.9-151.24c0.02-12.14,4.77-23.55,13.37-32.12c8.6-8.57,20.02-13.28,32.16-13.26c12.14,0.02,23.55,4.77,32.12,13.37
		c17.69,17.75,17.65,46.59-0.11,64.28c-8.6,8.57-20.02,13.28-32.16,13.26c-12.14-0.02-23.55-4.77-32.12-13.37
		C-192.21-127.67-196.92-139.1-196.9-151.24z M145.17,146.42c-38.98,38.85-90.76,60.2-145.79,60.11
		c-55.04-0.09-106.74-21.61-145.6-60.59c-64.54-64.75-78.56-163.7-35.4-243.39c9.08,5.12,19.37,7.87,30.08,7.89
		c16.45,0.03,31.93-6.36,43.59-17.97c19.95-19.89,23.38-50.15,10.3-73.63c79.84-42.91,178.75-28.57,243.3,36.19
		C225.85-64.5,225.64,66.21,145.17,146.42z"/>
	<path d="M-0.13-97.83C-54.34-97.92-98.51-53.88-98.6,0.33C-98.69,54.54-54.66,98.71-0.45,98.8S97.94,54.86,98.03,0.65
		C98.12-53.56,54.08-97.74-0.13-97.83z M-0.42,82.65c-45.31-0.07-82.11-36.99-82.03-82.3s36.99-82.11,82.3-82.03
		c45.31,0.07,82.11,36.99,82.03,82.3S44.89,82.73-0.42,82.65z"/>
</g>
</svg>
