<?xml version="1.0" encoding="utf-8"?>
<!-- Generator: Adobe Illustrator 24.3.0, SVG Export Plug-In . SVG Version: 6.00 Build 0)  -->
<svg version="1.1" id="Layer_1" xmlns="http://www.w3.org/2000/svg" xmlns:xlink="http://www.w3.org/1999/xlink" x="0px" y="0px"
	 viewBox="0 0 1000 1000" style="enable-background:new 0 0 1000 1000;" xml:space="preserve">
<style type="text/css">
	.st0{fill:#C59FFF;}
</style>
<g>
	<path class="st0" d="M2044.25,276.6c-40.34-40.34-86.66-73.17-137.68-97.58c-49.31-23.59-101.95-38.84-156.45-45.32
		c-99.58-11.84-201.43,6.84-289.85,52.7c-59.37-50.77-149.02-48.13-205.18,8.03c-56.15,56.15-58.8,145.81-8.03,205.18
		c-45.85,88.42-64.54,190.28-52.69,289.85c6.48,54.5,21.73,107.14,45.32,156.45c24.41,51.02,57.24,97.34,97.58,137.68
		C1431.68,1078,1557.22,1130,1690.75,1130s259.07-52,353.49-146.42s146.42-219.96,146.42-353.49
		C2190.67,496.56,2138.67,371.02,2044.25,276.6z M1304.66,243.99c15.82-15.82,36.61-23.73,57.39-23.73
		c20.78,0,41.57,7.91,57.39,23.73c15.33,15.33,23.77,35.71,23.77,57.39s-8.44,42.06-23.77,57.39c-31.64,31.64-83.13,31.64-114.78,0
		C1273.02,327.13,1273.02,275.64,1304.66,243.99z M1994.67,934c-81.18,81.18-189.11,125.89-303.92,125.89
		c-114.8,0-222.74-44.71-303.92-125.89c-130.87-130.87-162.59-329.07-82.32-492.74c18.38,7.53,37.96,11.31,57.54,11.31
		c38.74,0,77.47-14.74,106.96-44.23c28.57-28.57,44.31-66.56,44.31-106.96c0-20.08-3.89-39.55-11.31-57.58
		c163.65-80.21,361.81-48.49,492.66,82.36C2162.25,493.75,2162.25,766.42,1994.67,934z"/>
	<path class="st0" d="M1690.75,399.11c-127.36,0-230.97,103.61-230.97,230.97s103.61,230.97,230.97,230.97
		c127.36,0,230.97-103.61,230.97-230.97S1818.11,399.11,1690.75,399.11z M1690.75,790.95c-88.7,0-160.86-72.16-160.86-160.86
		c0-88.7,72.16-160.86,160.86-160.86c88.7,0,160.86,72.16,160.86,160.86C1851.62,718.79,1779.45,790.95,1690.75,790.95z"/>
</g>
<g>
	<path class="st0" d="M853.19,146.4c-40.34-40.34-86.65-73.16-137.65-97.56c-49.3-23.58-101.92-38.83-156.41-45.31
		c-102.7-12.22-207.8,8.03-298.09,57.07C205.63,6.76,116.77,7.21,61.96,62.02c-26.79,26.79-41.54,62.4-41.54,100.29
		c0,37.19,14.25,72.18,40.12,98.79C11.5,351.39-8.74,456.5,3.47,559.19C9.95,613.68,25.2,666.31,48.78,715.6
		c24.4,51,57.23,97.32,97.56,137.65c94.4,94.4,219.92,146.39,353.43,146.39s259.02-51.99,353.42-146.39
		c94.4-94.4,146.39-219.92,146.39-353.43S947.6,240.81,853.19,146.4z M93.78,93.84c18.88-18.88,43.67-28.32,68.47-28.32
		c24.8,0,49.59,9.44,68.47,28.32c18.29,18.29,28.36,42.61,28.36,68.47s-10.07,50.18-28.36,68.47c-37.76,37.76-99.19,37.76-136.94,0
		c-18.29-18.29-28.36-42.61-28.36-68.47S75.49,112.13,93.78,93.84z M821.38,821.44c-88.68,88.68-205.12,133.01-321.61,133
		c-116.46-0.01-232.95-44.35-321.61-133C36.52,679.8,4.64,463.63,97.03,288.25c20.38,10.54,42.79,15.82,65.22,15.82
		c36.31,0,72.64-13.83,100.29-41.47c26.79-26.79,41.54-62.4,41.54-100.29c0-23.09-5.51-45.32-15.85-65.24
		C463.6,4.71,679.75,36.59,821.38,178.22c85.91,85.9,133.22,200.12,133.22,321.61C954.59,621.32,907.28,735.53,821.38,821.44z"/>
	<path class="st0" d="M499.77,276.16c-123.33,0-223.67,100.34-223.67,223.67c0,123.33,100.34,223.67,223.67,223.67
		c123.33,0,223.67-100.34,223.67-223.67C723.43,376.5,623.1,276.16,499.77,276.16z M499.77,678.5
		c-98.52,0-178.67-80.15-178.67-178.67s80.15-178.67,178.67-178.67c98.52,0,178.67,80.15,178.67,178.67S598.29,678.5,499.77,678.5z"
		/>
</g>
</svg>
