<?xml version="1.0" encoding="utf-8"?>
<!-- Generator: Adobe Illustrator 24.3.0, SVG Export Plug-In . SVG Version: 6.00 Build 0)  -->
<svg version="1.1" id="Layer_1" xmlns="http://www.w3.org/2000/svg" xmlns:xlink="http://www.w3.org/1999/xlink" x="0px" y="0px"
	 viewBox="0 0 800 600" style="enable-background:new 0 0 800 600;" xml:space="preserve">
<style type="text/css">
	.st0{fill:#DFD8F3;}
</style>
<path class="st0" d="M508,181H15c-8.28,0-15-6.72-15-15V16C0,7.72,6.72,1,15,1h493c8.28,0,15,6.72,15,15v150
	C523,174.28,516.28,181,508,181z"/>
<path class="st0" d="M785,181H569c-8.28,0-15-6.72-15-15V15c0-8.28,6.72-15,15-15l216,0c8.28,0,15,6.72,15,15v151
	C800,174.28,793.28,181,785,181z"/>
<path class="st0" d="M508,600H15c-8.28,0-15-6.72-15-15V435c0-8.28,6.72-15,15-15h493c8.28,0,15,6.72,15,15v150
	C523,593.28,516.28,600,508,600z"/>
<path class="st0" d="M785,600H569c-8.28,0-15-6.72-15-15V434c0-8.28,6.72-15,15-15h216c8.28,0,15,6.72,15,15v151
	C800,593.28,793.28,600,785,600z"/>
<path class="st0" d="M292,210h493c8.28,0,15,6.72,15,15v150c0,8.28-6.72,15-15,15H292c-8.28,0-15-6.72-15-15V225
	C277,216.72,283.72,210,292,210z"/>
<path class="st0" d="M231,210H15c-8.28,0-15,6.72-15,15v151c0,8.28,6.72,15,15,15h216c8.28,0,15-6.72,15-15V225
	C246,216.72,239.28,210,231,210z M164.69,312.3H134.4v29.84h-23.29V312.3H80.97v-23.29h30.14v-29.84h23.29v29.84h30.28V312.3z"/>
</svg>
