<?xml version="1.0" encoding="utf-8"?>
<!-- Generator: Adobe Illustrator 24.3.0, SVG Export Plug-In . SVG Version: 6.00 Build 0)  -->
<svg version="1.1" id="Layer_1" xmlns="http://www.w3.org/2000/svg" xmlns:xlink="http://www.w3.org/1999/xlink" x="0px" y="0px"
	 viewBox="0 0 800 600" style="enable-background:new 0 0 800 600;" xml:space="preserve">
<style type="text/css">
	.st0{fill:#CECECE;}
</style>
<g>
	<path class="st0" d="M201,600H15c-8.28,0-15-6.72-15-15V15C0,6.72,6.72,0,15,0h186c8.28,0,15,6.72,15,15v570
		C216,593.28,209.28,600,201,600z"/>
</g>
<path class="st0" d="M785,175H259c-8.28,0-15-6.72-15-15V15c0-8.28,6.72-15,15-15h526c8.28,0,15,6.72,15,15v145
	C800,168.28,793.28,175,785,175z"/>
<path class="st0" d="M785,245H257c-8.28,0-15-6.72-15-15v-11c0-8.28,6.72-15,15-15h528c8.28,0,15,6.72,15,15v11
	C800,238.28,793.28,245,785,245z"/>
<path class="st0" d="M785,315H257c-8.28,0-15-6.72-15-15v-11c0-8.28,6.72-15,15-15h528c8.28,0,15,6.72,15,15v11
	C800,308.28,793.28,315,785,315z"/>
<path class="st0" d="M785,600H257c-8.28,0-15-6.72-15-15v-11c0-8.28,6.72-15,15-15h528c8.28,0,15,6.72,15,15v11
	C800,593.28,793.28,600,785,600z"/>
<path class="st0" d="M785,529H257c-8.28,0-15-6.72-15-15V359c0-8.28,6.72-15,15-15h528c8.28,0,15,6.72,15,15v155
	C800,522.28,793.28,529,785,529z"/>
<rect x="234" y="-158" class="st0" width="30" height="51"/>
<rect x="393.5" y="-126.5" transform="matrix(-1.836970e-16 1 -1 -1.836970e-16 307.5 -509.5)" class="st0" width="30" height="51"/>
</svg>
