<?xml version="1.0" encoding="utf-8"?>
<!-- Generator: Adobe Illustrator 24.3.0, SVG Export Plug-In . SVG Version: 6.00 Build 0)  -->
<svg version="1.1" id="Layer_1" xmlns="http://www.w3.org/2000/svg" xmlns:xlink="http://www.w3.org/1999/xlink" x="0px" y="0px"
	 viewBox="0 0 1000 1000" style="enable-background:new 0 0 1000 1000;" xml:space="preserve">
<style type="text/css">
	.st0{fill:#C59FFF;}
</style>
<g>
	<path class="st0" d="M853.25,146.6c-40.34-40.34-86.66-73.17-137.68-97.58C666.26,25.43,613.62,10.18,559.12,3.7
		c-99.58-11.84-201.43,6.84-289.85,52.7C209.9,5.62,120.24,8.27,64.09,64.42C7.93,120.57,5.29,210.23,56.06,269.6
		C10.2,358.02-8.48,459.87,3.36,559.45c6.48,54.5,21.73,107.14,45.32,156.45c24.41,51.02,57.24,97.34,97.58,137.68
		C240.68,948,366.22,1000,499.75,1000s259.07-52,353.49-146.42s146.42-219.96,146.42-353.49
		C999.67,366.56,947.67,241.02,853.25,146.6z M113.66,113.99c15.82-15.82,36.61-23.73,57.39-23.73c20.78,0,41.57,7.91,57.39,23.73
		c15.33,15.33,23.77,35.71,23.77,57.39s-8.44,42.06-23.77,57.39c-31.64,31.64-83.13,31.64-114.78,0
		C82.02,197.13,82.02,145.64,113.66,113.99z M803.67,804c-81.18,81.18-189.11,125.89-303.92,125.89S277.02,885.18,195.84,804
		C64.97,673.13,33.25,474.93,113.51,311.27c18.38,7.53,37.96,11.31,57.54,11.31c38.74,0,77.47-14.74,106.96-44.23
		c28.57-28.57,44.31-66.56,44.31-106.96c0-20.08-3.89-39.55-11.31-57.58c163.65-80.21,361.8-48.49,492.66,82.36
		C971.25,363.75,971.25,636.42,803.67,804z"/>
	<path class="st0" d="M499.75,269.11c-127.36,0-230.97,103.61-230.97,230.97S372.4,731.06,499.75,731.06
		c127.36,0,230.97-103.61,230.97-230.97S627.11,269.11,499.75,269.11z M499.75,660.95c-88.7,0-160.86-72.16-160.86-160.86
		c0-88.7,72.16-160.86,160.86-160.86s160.86,72.16,160.86,160.86C660.62,588.79,588.45,660.95,499.75,660.95z"/>
</g>
</svg>
