<?xml version="1.0" encoding="utf-8"?>
<!-- Generator: Adobe Illustrator 24.3.0, SVG Export Plug-In . SVG Version: 6.00 Build 0)  -->
<svg version="1.1" id="Layer_1" xmlns="http://www.w3.org/2000/svg" xmlns:xlink="http://www.w3.org/1999/xlink" x="0px" y="0px"
	 viewBox="0 0 800 600" style="enable-background:new 0 0 800 600;" xml:space="preserve">
<style type="text/css">
	.st0{fill:#DFD8F3;}
	.st1{fill:#CECECE;}
</style>
<path class="st0" d="M664,328H136c-8.28,0-15-6.72-15-15v-11c0-8.28,6.72-15,15-15h528c8.28,0,15,6.72,15,15v11
	C679,321.28,672.28,328,664,328z"/>
<path class="st0" d="M664,399H136c-8.28,0-15-6.72-15-15v-11c0-8.28,6.72-15,15-15h528c8.28,0,15,6.72,15,15v11
	C679,392.28,672.28,399,664,399z"/>
<path class="st0" d="M370,470H136c-8.28,0-15-6.72-15-15v-11c0-8.28,6.72-15,15-15h234c8.28,0,15,6.72,15,15v11
	C385,463.28,378.28,470,370,470z"/>
<path class="st0" d="M664,470H430c-8.28,0-15-6.72-15-15v-11c0-8.28,6.72-15,15-15h234c8.28,0,15,6.72,15,15v11
	C679,463.28,672.28,470,664,470z"/>
<path class="st0" d="M1426,472H898c-8.28,0-15-6.72-15-15v-11c0-8.28,6.72-15,15-15h528c8.28,0,15,6.72,15,15v11
	C1441,465.28,1434.28,472,1426,472z"/>
<path class="st0" d="M1426,757H898c-8.28,0-15-6.72-15-15v-11c0-8.28,6.72-15,15-15h528c8.28,0,15,6.72,15,15v11
	C1441,750.28,1434.28,757,1426,757z"/>
<path class="st0" d="M785,600H15c-8.28,0-15-6.72-15-15v-70c0-8.28,6.72-15,15-15h770c8.28,0,15,6.72,15,15v70
	C800,593.28,793.28,600,785,600z"/>
<rect x="964" y="206" class="st1" width="30" height="51"/>
<rect x="832.5" y="80.5" transform="matrix(-1.836970e-16 1 -1 -1.836970e-16 953.5 -741.5)" class="st1" width="30" height="51"/>
<path class="st0" d="M785,0H15C6.72,0,0,6.72,0,15v227c0,8.28,6.72,15,15,15h770c8.28,0,15-6.72,15-15V15C800,6.72,793.28,0,785,0z
	 M400.03,186.02c-5.2-5.89-77.85-41.85-62.95-81.92c13.38-35.97,57.23-21.43,62.95-1.93c4.16-18.3,49.11-34.73,62.96,1.9
	C477.89,143.49,405.22,181.34,400.03,186.02z"/>
</svg>
