<?xml version="1.0" encoding="utf-8"?>
<!-- Generator: Adobe Illustrator 24.3.0, SVG Export Plug-In . SVG Version: 6.00 Build 0)  -->
<svg version="1.1" id="Layer_1" xmlns="http://www.w3.org/2000/svg" xmlns:xlink="http://www.w3.org/1999/xlink" x="0px" y="0px"
	 viewBox="0 0 1000 1000" style="enable-background:new 0 0 1000 1000;" xml:space="preserve">
<style type="text/css">
	.st0{fill:#C59FFF;}
	.st1{fill:#00E5E3;}
	.st2{fill:none;stroke:#C59FFF;stroke-width:20;stroke-miterlimit:10;}
	.st3{fill:none;stroke:#00E5E3;stroke-width:20;stroke-miterlimit:10;}
</style>
<path class="st0" d="M806.83,953.85c-51.62,0-100.15-20.1-136.66-56.61c-62.52-62.52-74.72-159.24-29.65-235.19l16.86,10.01
	c-40.49,68.24-29.53,155.13,26.65,211.31c32.8,32.8,76.41,50.86,122.79,50.86c46.39,0,89.99-18.06,122.79-50.86
	c32.8-32.8,50.86-76.41,50.86-122.79s-18.06-89.99-50.86-122.79c-56.18-56.18-143.07-67.14-211.31-26.65l-10.01-16.86
	c75.95-45.07,172.66-32.87,235.19,29.65c75.35,75.35,75.35,197.96,0,273.31C906.98,933.75,858.45,953.85,806.83,953.85z"/>
<path class="st0" d="M806.83,847.71c-48.04,0-87.12-39.08-87.12-87.12s39.08-87.12,87.12-87.12c48.04,0,87.12,39.08,87.12,87.12
	S854.87,847.71,806.83,847.71z M806.83,693.07c-37.23,0-67.51,30.29-67.51,67.51s30.29,67.51,67.51,67.51s67.52-30.29,67.52-67.51
	S844.06,693.07,806.83,693.07z"/>
<path class="st0" d="M193.11,953.43c-49.49,0-98.98-18.84-136.66-56.51c-75.35-75.35-75.35-197.96,0-273.31
	c62.52-62.52,159.24-74.71,235.19-29.65l-10.01,16.86c-68.24-40.49-155.13-29.53-211.31,26.65c-67.71,67.71-67.71,177.88,0,245.58
	c67.71,67.71,177.87,67.71,245.58,0c56.18-56.18,67.14-143.08,26.65-211.31l16.86-10.01c45.07,75.95,32.87,172.66-29.65,235.19
	C292.09,934.59,242.6,953.43,193.11,953.43z"/>
<path class="st0" d="M193.11,847.38c-48.04,0-87.12-39.08-87.12-87.12c0-48.04,39.08-87.12,87.12-87.12s87.12,39.08,87.12,87.12
	C280.24,808.3,241.15,847.38,193.11,847.38z M193.11,692.74c-37.23,0-67.51,30.29-67.51,67.52s30.29,67.51,67.51,67.51
	s67.51-30.29,67.51-67.51S230.34,692.74,193.11,692.74z"/>
<path class="st0" d="M500.06,513.09c-36.46,0-72.92-13.88-100.67-41.63c-55.51-55.51-55.51-145.84,0-201.35l0,0
	c26.89-26.89,62.64-41.7,100.67-41.7c38.03,0,73.78,14.81,100.67,41.7c55.51,55.51,55.51,145.84,0,201.35
	C572.98,499.21,536.52,513.09,500.06,513.09z M413.25,283.98c-47.87,47.87-47.87,125.75,0,173.62c47.87,47.87,125.75,47.87,173.61,0
	c47.87-47.87,47.87-125.75,0-173.62c-23.19-23.19-54.02-35.96-86.81-35.96S436.44,260.79,413.25,283.98L413.25,283.98z"/>
<path class="st0" d="M500.05,695.12c-0.05,0-0.1,0-0.15,0c-48.95-0.02-97.97-11.3-141.76-32.6l8.58-17.63
	c83.38,40.57,182.98,40.62,266.4,0.13l8.56,17.64C597.92,683.89,548.95,695.12,500.05,695.12z"/>
<path class="st0" d="M719.62,609.5l-13.29-14.42c3.44-3.17,6.46-6.05,9.21-8.81c118.82-118.82,118.82-312.15,0-430.97
	c-118.82-118.82-312.15-118.82-430.97,0c-118.82,118.82-118.82,312.15,0,430.97c2.67,2.67,5.6,5.48,8.97,8.58l-13.3,14.41
	c-3.56-3.29-6.68-6.27-9.53-9.13c-61.26-61.26-95-142.71-95-229.35c0-86.64,33.74-168.09,95-229.35c61.26-61.26,142.71-95,229.35-95
	s168.09,33.74,229.35,95c61.26,61.26,95,142.71,95,229.35c0,86.64-33.74,168.09-95,229.35C726.46,603.09,723.26,606.15,719.62,609.5
	z"/>
<path class="st1" d="M677.1,686.5c-14.26,0-28.51-5.43-39.36-16.28c-21.7-21.71-21.7-57.02,0-78.73
	c10.51-10.51,24.49-16.31,39.36-16.31s28.85,5.79,39.36,16.31l0,0l0,0c10.51,10.51,16.31,24.49,16.31,39.36
	c0,14.87-5.79,28.85-16.31,39.36C705.62,681.08,691.36,686.5,677.1,686.5z M677.1,594.8c-9.63,0-18.69,3.75-25.5,10.56
	c-14.06,14.06-14.06,36.94,0,50.99c14.06,14.06,36.94,14.06,50.99,0c6.81-6.81,10.56-15.87,10.56-25.5c0-9.63-3.75-18.69-10.56-25.5
	l0,0C695.79,598.55,686.74,594.8,677.1,594.8z"/>
<path class="st1" d="M322.84,686.18c-14.26,0-28.51-5.43-39.36-16.28c-21.71-21.71-21.71-57.02,0-78.73
	c21.71-21.71,57.02-21.7,78.73,0c21.71,21.71,21.71,57.02,0,78.73C351.35,680.75,337.09,686.18,322.84,686.18z M322.84,594.49
	c-9.23,0-18.47,3.51-25.5,10.54c-14.06,14.06-14.06,36.94,0,51c14.06,14.06,36.94,14.06,51,0c14.06-14.06,14.06-36.94,0-51
	C341.31,598,332.07,594.49,322.84,594.49z"/>
<path class="st2" d="M2031.88,670.7c-42.6,71.79-33.03,165.95,28.71,227.69c73.07,73.07,191.54,73.07,264.61,0
	s73.07-191.54,0-264.61c-61.74-61.74-155.9-71.31-227.69-28.71"/>
<circle class="st2" cx="2192.89" cy="766.09" r="78.86"/>
<path class="st2" d="M1662.35,604.74c-71.79-42.6-165.95-33.03-227.69,28.71c-73.07,73.07-73.07,191.54,0,264.61
	c73.07,73.07,191.54,73.07,264.61,0c61.74-61.74,71.31-155.9,28.71-227.69"/>
<circle class="st2" cx="1566.96" cy="765.75" r="78.86"/>
<circle class="st2" cx="1880.02" cy="368.53" r="135.21"/>
<path class="st2" d="M1739.65,657.07c88.27,42.95,192.14,42.99,280.45,0.14"/>
<path class="st2" d="M2097.17,604.64c3.27-3.02,6.52-6.09,9.69-9.27c125.28-125.28,125.28-328.41,0-453.69s-328.41-125.28-453.69,0
	s-125.28,328.41,0,453.69c3.09,3.09,6.25,6.09,9.43,9.03"/>
<circle class="st3" cx="2060.59" cy="633.78" r="46.78"/>
<circle class="st3" cx="1699.27" cy="633.45" r="46.78"/>
</svg>
